<svg width="30" height="30" viewBox="0 0 30 30" fill="none" xmlns="http://www.w3.org/2000/svg">
<g clip-path="url(#clip0_73_190)">
<path fill-rule="evenodd" clip-rule="evenodd" d="M4.3934 4.39341C10.2512 -1.46442 19.7488 -1.46442 25.6066 4.39341C31.4648 10.2516 31.4644 19.7488 25.6066 25.6066C19.7484 31.4648 10.2516 31.4648 4.3934 25.6066C-1.46443 19.7488 -1.46476 10.2516 4.3934 4.39341ZM5.71927 5.71919C0.601871 10.8366 0.580988 19.1843 5.69834 24.3017C10.8157 29.419 19.1635 29.3981 24.2808 24.2807C29.3982 19.1634 29.3982 10.8365 24.2808 5.71919C19.1635 0.601836 10.8366 0.601835 5.71927 5.71919Z" fill="#C13222"/>
<path d="M20.3033 18.9775L16.3258 15L20.3033 11.0225C20.6692 10.6566 20.6692 10.0626 20.3033 9.69671C19.9374 9.33078 19.3434 9.33078 18.9775 9.69671L15 13.6742L11.0225 9.69671C10.6566 9.33078 10.0626 9.33078 9.6967 9.69671C9.33077 10.0626 9.33077 10.6566 9.6967 11.0225L13.6742 15L9.6967 18.9775C9.33077 19.3434 9.33077 19.9374 9.6967 20.3033C10.0626 20.6692 10.6566 20.6692 11.0225 20.3033L15 16.3258L18.9775 20.3033C19.3434 20.6692 19.9374 20.6692 20.3033 20.3033C20.6692 19.9374 20.6692 19.3434 20.3033 18.9775Z" fill="#C13222"/>
</g>
<defs>
<clipPath id="clip0_73_190">
<rect width="30" height="30" fill="white"/>
</clipPath>
</defs>
</svg>
