<svg width="30" height="30" viewBox="0 0 30 30" fill="none" xmlns="http://www.w3.org/2000/svg">
<g opacity="0.5">
<path d="M14.2493 22.7011L23.4943 13.4561C21.9389 12.8067 20.5262 11.8579 19.3368 10.6636C18.142 9.47391 17.1927 8.06086 16.543 6.50489L7.29804 15.7499C6.57679 16.4711 6.21554 16.8324 5.90554 17.2299C5.53942 17.699 5.22549 18.2066 4.96929 18.7436C4.75304 19.1986 4.59179 19.6836 4.26929 20.6511L2.56679 25.7549C2.48843 25.9886 2.47681 26.2395 2.53322 26.4794C2.58963 26.7193 2.71185 26.9388 2.88613 27.1131C3.06041 27.2873 3.27985 27.4096 3.51978 27.466C3.7597 27.5224 4.01061 27.5107 4.24429 27.4324L9.34804 25.7299C10.3168 25.4074 10.8005 25.2461 11.2555 25.0299C11.793 24.7736 12.3005 24.4599 12.7693 24.0936C13.1668 23.7836 13.528 23.4224 14.2493 22.7011ZM26.0593 10.8911C26.9811 9.96935 27.4989 8.71913 27.4989 7.41552C27.4989 6.11191 26.9811 4.86169 26.0593 3.93989C25.1375 3.0181 23.8873 2.50024 22.5837 2.50024C21.2801 2.50024 20.0298 3.0181 19.108 3.93989L17.9993 5.04865L18.0468 5.1874C18.5932 6.75079 19.4873 8.16977 20.6618 9.33739C21.8643 10.547 23.333 11.4588 24.9505 11.9999L26.0593 10.8911Z" fill="#404040"/>
</g>
</svg>
