<svg width="17" height="17" viewBox="0 0 17 17" fill="none" xmlns="http://www.w3.org/2000/svg">
<path d="M1.82144 6.14677L8.28994 9.51095C8.35483 9.54468 8.42688 9.5623 8.50001 9.5623C8.57314 9.5623 8.6452 9.54468 8.71008 9.51095L15.1786 6.14737V11.9911C15.1786 12.4951 14.9858 12.9801 14.6396 13.3464C14.2935 13.7128 13.8203 13.9328 13.3171 13.9613L13.2054 13.9643H3.79466C3.29064 13.9644 2.80572 13.7715 2.43937 13.4254C2.07302 13.0793 1.85301 12.606 1.82448 12.1028L1.82144 11.9911V6.14677ZM3.79466 3.03577H13.2054C13.7094 3.03573 14.1943 3.22857 14.5607 3.57471C14.927 3.92085 15.147 4.39406 15.1755 4.89727L15.1786 5.00898V5.1207L8.50001 8.59355L1.82144 5.1207V5.00898C1.82141 4.50497 2.01424 4.02005 2.36039 3.6537C2.70653 3.28735 3.17974 3.06734 3.68294 3.0388L3.79466 3.03577Z" fill="#C13222"/>
</svg>
