<svg width="17" height="17" viewBox="0 0 17 17" fill="none" xmlns="http://www.w3.org/2000/svg">
<path d="M8.5 2C12.0899 2 15 4.91005 15 8.5C15 12.0899 12.0899 15 8.5 15C4.91005 15 2 12.0899 2 8.5C2 4.91005 4.91005 2 8.5 2ZM7.8955 5.62765C7.77517 5.62765 7.65977 5.67545 7.57469 5.76054C7.4896 5.84562 7.4418 5.96102 7.4418 6.08135V9.709C7.4418 9.9599 7.6446 10.1627 7.8955 10.1627H11.5231C11.5841 10.165 11.645 10.155 11.702 10.1332C11.759 10.1115 11.811 10.0785 11.855 10.0362C11.899 9.99383 11.9339 9.94306 11.9578 9.88691C11.9817 9.83075 11.994 9.77035 11.994 9.70932C11.994 9.6483 11.9817 9.5879 11.9578 9.53174C11.9339 9.47558 11.899 9.42482 11.855 9.3825C11.811 9.34017 11.759 9.30715 11.702 9.2854C11.645 9.26366 11.5841 9.25364 11.5231 9.25595H8.34855V6.08135C8.34855 5.96113 8.30084 5.84583 8.21589 5.76077C8.13095 5.6757 8.01572 5.62782 7.8955 5.62765Z" fill="#C13222"/>
</svg>
