<svg width="24" height="24" viewBox="0 0 24 24" fill="none" xmlns="http://www.w3.org/2000/svg">
<path d="M12 2.40002C10.7269 2.40002 9.50604 2.90574 8.60586 3.80591C7.70569 4.70609 7.19998 5.92699 7.19998 7.20002C7.19998 8.47306 7.70569 9.69396 8.60586 10.5941C9.50604 11.4943 10.7269 12 12 12C13.273 12 14.4939 11.4943 15.3941 10.5941C16.2943 9.69396 16.8 8.47306 16.8 7.20002C16.8 5.92699 16.2943 4.70609 15.3941 3.80591C14.4939 2.90574 13.273 2.40002 12 2.40002ZM8.39998 7.20002C8.39998 6.24525 8.77926 5.32957 9.45439 4.65444C10.1295 3.97931 11.0452 3.60002 12 3.60002C12.9548 3.60002 13.8704 3.97931 14.5456 4.65444C15.2207 5.32957 15.6 6.24525 15.6 7.20002C15.6 8.1548 15.2207 9.07048 14.5456 9.74561C13.8704 10.4207 12.9548 10.8 12 10.8C11.0452 10.8 10.1295 10.4207 9.45439 9.74561C8.77926 9.07048 8.39998 8.1548 8.39998 7.20002ZM6.01078 13.2C5.69474 13.1988 5.38156 13.2599 5.0892 13.3799C4.79685 13.5 4.53106 13.6765 4.30709 13.8995C4.08311 14.1225 3.90536 14.3875 3.78402 14.6793C3.66267 14.9711 3.60013 15.284 3.59998 15.6C3.59998 17.6292 4.59958 19.1592 6.16198 20.1564C7.70038 21.1368 9.77398 21.6 12 21.6C14.226 21.6 16.2996 21.1368 17.838 20.1564C19.4004 19.1604 20.4 17.628 20.4 15.6C20.4 14.9635 20.1471 14.3531 19.697 13.903C19.2469 13.4529 18.6365 13.2 18 13.2H6.01078ZM4.79998 15.6C4.79998 14.9364 5.33758 14.4 6.01078 14.4H18C18.3182 14.4 18.6235 14.5265 18.8485 14.7515C19.0735 14.9765 19.2 15.2818 19.2 15.6C19.2 17.1708 18.4536 18.3408 17.1924 19.1436C15.9084 19.9632 14.082 20.4 12 20.4C9.91798 20.4 8.09158 19.9632 6.80758 19.1436C5.54758 18.3396 4.79998 17.172 4.79998 15.6Z" fill="#1B1B1B"/>
</svg>
