<svg width="44" height="44" viewBox="0 0 44 44" fill="none" xmlns="http://www.w3.org/2000/svg">
<path d="M36.6667 3.66669H25.6667C25.1857 3.66871 24.7248 3.85966 24.3833 4.19835L5.5 23.0084C5.15909 23.3489 4.88864 23.7533 4.70411 24.1984C4.51959 24.6435 4.42462 25.1207 4.42462 25.6025C4.42462 26.0844 4.51959 26.5615 4.70411 27.0066C4.88864 27.4518 5.15909 27.8562 5.5 28.1967L15.8033 38.5C16.4878 39.1886 17.4174 39.5776 18.3883 39.5817C18.8722 39.5821 19.3513 39.4867 19.7981 39.301C20.2449 39.1154 20.6506 38.8432 20.9917 38.5L39.8017 19.6167C40.1404 19.2752 40.3313 18.8143 40.3333 18.3334V7.33335C40.3333 6.36089 39.947 5.42826 39.2594 4.74063C38.5718 4.053 37.6391 3.66669 36.6667 3.66669ZM30.25 16.5C29.7061 16.5 29.1744 16.3387 28.7222 16.0366C28.2699 15.7344 27.9175 15.3049 27.7093 14.8024C27.5012 14.2999 27.4467 13.747 27.5528 13.2135C27.6589 12.6801 27.9209 12.1901 28.3055 11.8055C28.6901 11.4209 29.1801 11.159 29.7135 11.0529C30.247 10.9468 30.7999 11.0012 31.3024 11.2094C31.8049 11.4175 32.2344 11.77 32.5365 12.2222C32.8387 12.6744 33 13.2061 33 13.75C33 14.4794 32.7103 15.1788 32.1945 15.6946C31.6788 16.2103 30.9793 16.5 30.25 16.5Z" fill="#3A4754"/>
</svg>
