<svg width="44" height="44" viewBox="0 0 44 44" fill="none" xmlns="http://www.w3.org/2000/svg">
<path d="M30.25 1.375H12.375V4.125H30.25V1.375Z" fill="#111918"/>
<path d="M33.8223 17.8723C30.6873 15.2598 28.875 11.3905 28.875 7.3095V5.5H13.75V7.3095C13.75 11.3905 11.9377 15.2598 8.80275 17.8723L5.5 20.625L20.625 42.625V27.4313C19.0561 27.1123 17.875 25.7262 17.875 24.0625C17.875 22.1636 19.4136 20.625 21.3125 20.625C23.2114 20.625 24.75 22.1636 24.75 24.0625C24.75 25.7249 23.5689 27.1123 22 27.4313V42.625L37.125 20.625L33.8223 17.8723Z" fill="#111918"/>
<path d="M30.25 1.375H12.375V4.125H30.25V1.375Z" fill="#3A4754"/>
<path d="M33.8223 17.8723C30.6873 15.2598 28.875 11.3905 28.875 7.3095V5.5H13.75V7.3095C13.75 11.3905 11.9377 15.2598 8.80275 17.8723L5.5 20.625L20.625 42.625V27.4313C19.0561 27.1123 17.875 25.7262 17.875 24.0625C17.875 22.1636 19.4136 20.625 21.3125 20.625C23.2114 20.625 24.75 22.1636 24.75 24.0625C24.75 25.7249 23.5689 27.1123 22 27.4313V42.625L37.125 20.625L33.8223 17.8723Z" fill="#3A4754"/>
</svg>
