<svg width="44" height="44" viewBox="0 0 44 44" fill="none" xmlns="http://www.w3.org/2000/svg">
<path d="M16.7808 9.91538C19.103 5.74959 20.264 3.66669 22 3.66669C23.736 3.66669 24.897 5.74957 27.2191 9.91537L27.8199 10.9931C28.4799 12.1769 28.8097 12.7688 29.3243 13.1593C29.8388 13.5499 30.4793 13.6948 31.7608 13.9848L32.9276 14.2487C37.4368 15.269 39.6917 15.7792 40.2281 17.5042C40.7645 19.2291 39.2275 21.0267 36.1531 24.6215L35.3578 25.5516C34.4843 26.5731 34.0474 27.0839 33.8508 27.7158C33.6545 28.3478 33.7205 29.0292 33.8525 30.3923L33.9728 31.6331C34.4375 36.4295 34.67 38.8276 33.2656 39.8937C31.8611 40.9598 29.75 39.9878 25.5279 38.0439L24.4356 37.5408C23.2358 36.9884 22.636 36.7122 22 36.7122C21.364 36.7122 20.7641 36.9884 19.5644 37.5408L18.4721 38.0439C14.2499 39.9878 12.1388 40.9598 10.7344 39.8937C9.33005 38.8276 9.56244 36.4295 10.0272 31.6331L10.1475 30.3923C10.2795 29.0292 10.3456 28.3478 10.1491 27.7158C9.95257 27.0839 9.51578 26.5731 8.64218 25.5516L7.84684 24.6215C4.77262 21.0267 3.2355 19.2291 3.77193 17.5042C4.30836 15.7792 6.56307 15.269 11.0725 14.2487L12.2391 13.9848C13.5206 13.6948 14.1613 13.5499 14.6757 13.1593C15.1902 12.7688 15.5201 12.1769 16.18 10.9931L16.7808 9.91538Z" fill="#3A4754"/>
</svg>
