<svg width="44" height="44" viewBox="0 0 44 44" fill="none" xmlns="http://www.w3.org/2000/svg">
<path d="M39.9498 25.1963L40.37 20.7315C40.7 17.2251 40.865 15.4719 40.2652 14.7471C39.9407 14.3551 39.4994 14.1149 39.0277 14.0734C38.1555 13.9968 37.0603 15.2436 34.8698 17.7373C33.737 19.0269 33.1707 19.6717 32.5388 19.7716C32.1888 19.8268 31.832 19.77 31.5086 19.6073C30.9252 19.3136 30.5362 18.5166 29.7581 16.9223L25.6573 8.51889C24.1872 5.5063 23.452 4 22.3333 4C21.2146 4 20.4795 5.5063 19.0093 8.51891L14.9085 16.9223C14.1304 18.5166 13.7414 19.3136 13.158 19.6073C12.8347 19.77 12.478 19.8268 12.1278 19.7716C11.496 19.6717 10.9296 19.0269 9.79676 17.7373C7.60631 15.2436 6.51108 13.9968 5.63898 14.0734C5.16721 14.1149 4.72596 14.3551 4.40148 14.7471C3.80163 15.4719 3.96663 17.2251 4.29665 20.7315L4.71683 25.1963C5.40919 32.5527 5.75538 36.2309 7.92349 38.4487C10.0916 40.6667 13.3411 40.6667 19.8402 40.6667H24.8265C31.3255 40.6667 34.575 40.6667 36.7431 38.4487C38.9112 36.2309 39.2574 32.5527 39.9498 25.1963Z" fill="#3A4754"/>
</svg>
