<svg width="28" height="28" viewBox="0 0 28 28" fill="none" xmlns="http://www.w3.org/2000/svg">
<g clip-path="url(#clip0_2001_2287)">
<path fill-rule="evenodd" clip-rule="evenodd" d="M14 4C8.477 4 4 8.477 4 14C4 19.523 8.477 24 14 24C19.523 24 24 19.523 24 14C24 8.477 19.523 4 14 4ZM11 14C11.0001 13.3907 11.1857 12.7958 11.5321 12.2945C11.8786 11.7933 12.3695 11.4094 12.9395 11.194C13.5095 10.9786 14.1316 10.9419 14.7229 11.0887C15.3143 11.2356 15.847 11.559 16.25 12.016C16.4256 12.2149 16.673 12.3359 16.9378 12.3524C17.2026 12.3689 17.4631 12.2796 17.662 12.104C17.8609 11.9284 17.9819 11.681 17.9984 11.4162C18.0149 11.1514 17.9256 10.8909 17.75 10.692C17.0782 9.93038 16.1904 9.39138 15.2047 9.14674C14.2191 8.9021 13.1823 8.9634 12.2323 9.3225C11.2823 9.6816 10.4643 10.3215 9.88689 11.1569C9.30953 11.9924 9.00027 12.9839 9.00027 13.9995C9.00027 15.0151 9.30953 16.0066 9.88689 16.8421C10.4643 17.6775 11.2823 18.3174 12.2323 18.6765C13.1823 19.0356 14.2191 19.0969 15.2047 18.8523C16.1904 18.6076 17.0782 18.0686 17.75 17.307C17.8369 17.2085 17.9035 17.0939 17.9461 16.9696C17.9886 16.8454 18.0063 16.714 17.9981 16.5829C17.9899 16.4519 17.9559 16.3237 17.8982 16.2057C17.8404 16.0878 17.76 15.9824 17.6615 15.8955C17.563 15.8086 17.4484 15.742 17.3241 15.6994C17.1999 15.6569 17.0685 15.6392 16.9374 15.6474C16.8064 15.6556 16.6782 15.6896 16.5602 15.7473C16.4423 15.8051 16.3369 15.8855 16.25 15.984C15.847 16.441 15.3143 16.7644 14.7229 16.9113C14.1316 17.0581 13.5095 17.0214 12.9395 16.806C12.3695 16.5906 11.8786 16.2067 11.5321 15.7055C11.1857 15.2042 11.0001 14.6093 11 14Z" fill="#3A4754"/>
</g>
<defs>
<clipPath id="clip0_2001_2287">
<rect width="28" height="28" fill="white"/>
</clipPath>
</defs>
</svg>
