<svg width="28" height="28" viewBox="0 0 28 28" fill="none" xmlns="http://www.w3.org/2000/svg">
<path d="M15 11H13V9H15M15 19H13V13H15M14 4C12.6868 4 11.3864 4.25866 10.1732 4.7612C8.95991 5.26375 7.85752 6.00035 6.92893 6.92893C5.05357 8.8043 4 11.3478 4 14C4 16.6522 5.05357 19.1957 6.92893 21.0711C7.85752 21.9997 8.95991 22.7362 10.1732 23.2388C11.3864 23.7413 12.6868 24 14 24C16.6522 24 19.1957 22.9464 21.0711 21.0711C22.9464 19.1957 24 16.6522 24 14C24 12.6868 23.7413 11.3864 23.2388 10.1732C22.7362 8.95991 21.9997 7.85752 21.0711 6.92893C20.1425 6.00035 19.0401 5.26375 17.8268 4.7612C16.6136 4.25866 15.3132 4 14 4Z" fill="#3A4754"/>
</svg>
