<svg width="28" height="28" viewBox="0 0 28 28" fill="none" xmlns="http://www.w3.org/2000/svg">
<path d="M23.0439 4H15.3947C14.8695 4 14.1339 4.30469 13.7629 4.67568L4.27921 14.1593C4.10039 14.339 4 14.5822 4 14.8357C4 15.0891 4.10039 15.3323 4.27921 15.512L12.488 23.7208C12.6677 23.8996 12.9109 24 13.1643 24C13.4178 24 13.661 23.8996 13.8407 23.7208L23.3243 14.2371C23.6966 13.8649 24 13.1305 24 12.6053V4.95614C23.999 4.70287 23.8979 4.46025 23.7188 4.28116C23.5397 4.10207 23.2971 4.00101 23.0439 4ZM18.2631 11.6492C18.0119 11.6491 17.7632 11.5995 17.5311 11.5033C17.2991 11.4071 17.0883 11.2661 16.9107 11.0884C16.7331 10.9107 16.5923 10.6998 16.4962 10.4677C16.4002 10.2356 16.3508 9.9868 16.3508 9.73559C16.3509 9.48438 16.4005 9.23565 16.4967 9.00359C16.5929 8.77154 16.7339 8.56071 16.9116 8.38313C17.0893 8.20556 17.3002 8.06473 17.5323 7.96867C17.7644 7.87261 18.0132 7.82322 18.2644 7.8233C18.7718 7.82347 19.2582 8.02517 19.6169 8.38403C19.9755 8.7429 20.1769 9.22952 20.1767 9.73686C20.1765 10.2442 19.9748 10.7307 19.616 11.0893C19.2571 11.4479 18.7705 11.6493 18.2631 11.6492Z" fill="#3A4754"/>
</svg>
