<svg width="28" height="28" viewBox="0 0 28 28" fill="none" xmlns="http://www.w3.org/2000/svg">
<g clip-path="url(#clip0_2001_2299)">
<path d="M20.0003 6.57364C21.6135 8.18665 22.5361 10.3638 22.5731 12.6448C22.6101 14.9258 21.7585 17.1317 20.1984 18.7962L20.0003 19.0012L15.8577 23.1428C15.3321 23.6681 14.6265 23.9739 13.8838 23.9984C13.141 24.0229 12.4168 23.7641 11.8577 23.2746L11.7171 23.1428L7.57364 19.0003C5.92576 17.3524 5 15.1174 5 12.7869C5 10.4565 5.92576 8.22151 7.57364 6.57364C9.22151 4.92576 11.4565 4 13.7869 4C16.1174 4 18.3524 4.92576 20.0003 6.57364ZM13.7869 9.85798C13.4023 9.85798 13.0214 9.93374 12.6661 10.0809C12.3107 10.2281 11.9878 10.4439 11.7159 10.7159C11.4439 10.9878 11.2281 11.3107 11.0809 11.6661C10.9337 12.0214 10.858 12.4023 10.858 12.7869C10.858 13.1716 10.9337 13.5525 11.0809 13.9078C11.2281 14.2632 11.4439 14.5861 11.7159 14.858C11.9878 15.13 12.3107 15.3458 12.6661 15.493C13.0214 15.6401 13.4023 15.7159 13.7869 15.7159C14.5638 15.7159 15.3087 15.4073 15.858 14.858C16.4073 14.3087 16.7159 13.5638 16.7159 12.7869C16.7159 12.0101 16.4073 11.2651 15.858 10.7159C15.3087 10.1666 14.5638 9.85798 13.7869 9.85798Z" fill="#3A4754"/>
</g>
<defs>
<clipPath id="clip0_2001_2299">
<rect width="28" height="28" fill="white"/>
</clipPath>
</defs>
</svg>
