<svg width="28" height="28" viewBox="0 0 28 28" fill="none" xmlns="http://www.w3.org/2000/svg">
<path d="M11.1533 7.40801C12.4203 5.136 13.0533 4 14.0003 4C14.9473 4 15.5803 5.136 16.8473 7.40801L17.1753 7.99601C17.5353 8.64201 17.7153 8.96501 17.9953 9.17802C18.2753 9.39102 18.6253 9.47002 19.3253 9.62802L19.9613 9.77202C22.4213 10.329 23.6503 10.607 23.9433 11.548C24.2353 12.488 23.3973 13.469 21.7203 15.43L21.2863 15.937C20.8103 16.494 20.5713 16.773 20.4643 17.117C20.3573 17.462 20.3933 17.834 20.4653 18.577L20.5313 19.254C20.7843 21.8711 20.9113 23.1791 20.1453 23.7601C19.3793 24.3421 18.2273 23.8111 15.9253 22.7511L15.3283 22.4771C14.6743 22.1751 14.3473 22.0251 14.0003 22.0251C13.6533 22.0251 13.3263 22.1751 12.6723 22.4771L12.0763 22.7511C9.77325 23.8111 8.62125 24.3411 7.85625 23.7611C7.08924 23.1791 7.21624 21.8711 7.46925 19.254L7.53525 18.578C7.60725 17.834 7.64325 17.462 7.53525 17.118C7.42925 16.773 7.19025 16.494 6.71424 15.938L6.28024 15.43C4.60324 13.47 3.76523 12.489 4.05724 11.548C4.35024 10.607 5.58024 10.328 8.04025 9.77202L8.67625 9.62802C9.37525 9.47002 9.72425 9.39102 10.0053 9.17802C10.2853 8.96501 10.4653 8.64201 10.8253 7.99601L11.1533 7.40801Z" fill="#3A4754"/>
</svg>
