<svg width="18" height="18" viewBox="0 0 18 18" fill="none" xmlns="http://www.w3.org/2000/svg">
<path d="M11.4205 2.76544C11.4882 2.69383 11.5411 2.6096 11.5762 2.51756C11.6113 2.42551 11.6279 2.32745 11.6251 2.22897C11.6224 2.1305 11.6002 2.03353 11.5599 1.94362C11.5197 1.8537 11.4621 1.7726 11.3905 1.70494C11.3189 1.63727 11.2347 1.58438 11.1426 1.54926C11.0506 1.51415 10.9525 1.49751 10.854 1.5003C10.7556 1.50309 10.6586 1.52524 10.5687 1.5655C10.4788 1.60576 10.3977 1.66333 10.33 1.73494L3.95501 8.48494C3.82335 8.62419 3.75 8.80855 3.75 9.00019C3.75 9.19182 3.82335 9.37618 3.95501 9.51544L10.33 16.2662C10.3972 16.3394 10.4783 16.3984 10.5686 16.44C10.6588 16.4816 10.7564 16.5048 10.8557 16.5083C10.955 16.5119 11.054 16.4956 11.147 16.4606C11.2399 16.4255 11.325 16.3723 11.3973 16.3041C11.4695 16.2359 11.5275 16.154 11.5678 16.0632C11.6081 15.9724 11.63 15.8745 11.6322 15.7751C11.6343 15.6758 11.6167 15.577 11.5804 15.4845C11.5441 15.3921 11.4897 15.3077 11.4205 15.2364L5.53151 9.00019L11.4205 2.76544Z" fill="white"/>
</svg>
