<svg width="40" height="40" viewBox="0 0 40 40" fill="none" xmlns="http://www.w3.org/2000/svg">
<path d="M27 22C27.7956 22 28.5587 22.3161 29.1213 22.8787C29.6839 23.4413 30 24.2044 30 25V25.715C30 29.292 25.79 32 20 32C14.21 32 10 29.433 10 25.715V25C10 24.2044 10.3161 23.4413 10.8787 22.8787C11.4413 22.3161 12.2044 22 13 22H27ZM27 23.5H13C12.6273 23.5 12.2679 23.6388 11.9919 23.8892C11.7159 24.1397 11.543 24.484 11.507 24.855L11.5 25V25.715C11.5 28.389 14.889 30.5 20 30.5C24.926 30.5 28.355 28.395 28.495 25.876L28.5 25.715V25C28.5 24.6273 28.3612 24.2679 28.1108 23.9919C27.8603 23.7159 27.516 23.543 27.145 23.507L27 23.5ZM20 8C20.7879 8 21.5681 8.15519 22.2961 8.45672C23.0241 8.75825 23.6855 9.20021 24.2426 9.75736C24.7998 10.3145 25.2417 10.9759 25.5433 11.7039C25.8448 12.4319 26 13.2121 26 14C26 14.7879 25.8448 15.5681 25.5433 16.2961C25.2417 17.0241 24.7998 17.6855 24.2426 18.2426C23.6855 18.7998 23.0241 19.2417 22.2961 19.5433C21.5681 19.8448 20.7879 20 20 20C18.4087 20 16.8826 19.3679 15.7574 18.2426C14.6321 17.1174 14 15.5913 14 14C14 12.4087 14.6321 10.8826 15.7574 9.75736C16.8826 8.63214 18.4087 8 20 8ZM20 9.5C18.8065 9.5 17.6619 9.97411 16.818 10.818C15.9741 11.6619 15.5 12.8065 15.5 14C15.5 15.1935 15.9741 16.3381 16.818 17.182C17.6619 18.0259 18.8065 18.5 20 18.5C21.1935 18.5 22.3381 18.0259 23.182 17.182C24.0259 16.3381 24.5 15.1935 24.5 14C24.5 12.8065 24.0259 11.6619 23.182 10.818C22.3381 9.97411 21.1935 9.5 20 9.5Z" fill="#1B1B1B"/>
</svg>
