<svg width="40" height="40" viewBox="0 0 40 40" fill="none" xmlns="http://www.w3.org/2000/svg">
<path d="M20 8.75977L12.3663 16.3935H8V21.5363H9.07143L11.4551 29.4915L11.6429 30.1078H28.3571L28.5449 29.4915L30.9286 21.5363H32V16.3935H27.6337L20 8.75977ZM20 11.1975L25.1969 16.3935H14.804L20 11.1975ZM9.71429 18.1078H30.2857V19.8221H29.6429L29.4551 20.4383L27.0714 28.3935H12.9286L10.5449 20.4383L10.3571 19.8221H9.71429V18.1078ZM15.7143 20.6792V26.6792H17.4286V20.6792H15.7143ZM19.1429 20.6792V26.6792H20.8571V20.6792H19.1429ZM22.5714 20.6792V26.6792H24.2857V20.6792H22.5714Z" fill="#1B1B1B"/>
</svg>
