<svg width="34" height="33" viewBox="0 0 34 33" fill="none" xmlns="http://www.w3.org/2000/svg">
<path d="M0.995331 16.6424C0.995331 7.88462 8.09715 0.784779 16.858 0.784779C25.6189 0.784779 32.7207 7.88462 32.7207 16.6424C32.7207 25.4002 25.6189 32.5 16.858 32.5C8.09715 32.5 0.995331 25.4002 0.995331 16.6424Z" fill="#C13222" stroke="#C13222"/>
<path d="M14.7751 22.0102C14.7168 22.0718 14.6712 22.1443 14.641 22.2236C14.6108 22.3028 14.5964 22.3872 14.5988 22.472C14.6012 22.5568 14.6203 22.6403 14.655 22.7177C14.6897 22.7951 14.7392 22.8649 14.8009 22.9232C14.8626 22.9814 14.9351 23.027 15.0144 23.0572C15.0936 23.0874 15.1781 23.1017 15.2629 23.0994C15.3477 23.097 15.4312 23.0779 15.5086 23.0432C15.5861 23.0086 15.6559 22.959 15.7142 22.8973L21.2043 17.0861C21.3177 16.9662 21.3809 16.8075 21.3809 16.6425C21.3809 16.4775 21.3177 16.3188 21.2043 16.1989L15.7142 10.387C15.6563 10.324 15.5865 10.2731 15.5088 10.2374C15.431 10.2016 15.347 10.1816 15.2615 10.1785C15.176 10.1755 15.0907 10.1895 15.0106 10.2197C14.9306 10.2498 14.8573 10.2956 14.7951 10.3544C14.7329 10.4131 14.683 10.4836 14.6482 10.5618C14.6135 10.6399 14.5947 10.7242 14.5928 10.8098C14.5909 10.8953 14.6061 10.9803 14.6374 11.0599C14.6687 11.1396 14.7155 11.2122 14.7751 11.2735L19.8466 16.6425L14.7751 22.0102Z" fill="white"/>
</svg>
