<svg width="18" height="18" viewBox="0 0 18 18" fill="none" xmlns="http://www.w3.org/2000/svg">
<path d="M6.57949 15.2346C6.51183 15.3062 6.45893 15.3904 6.42382 15.4824C6.38871 15.5745 6.37207 15.6725 6.37486 15.771C6.37764 15.8695 6.3998 15.9665 6.44006 16.0564C6.48032 16.1463 6.53789 16.2274 6.60949 16.2951C6.6811 16.3627 6.76533 16.4156 6.85737 16.4507C6.94942 16.4858 7.04748 16.5025 7.14596 16.4997C7.24443 16.4969 7.3414 16.4748 7.43131 16.4345C7.52123 16.3942 7.60233 16.3367 7.66999 16.2651L14.045 9.51506C14.1766 9.37581 14.25 9.19145 14.25 8.99981C14.25 8.80818 14.1766 8.62382 14.045 8.48456L7.66999 1.73381C7.60278 1.66064 7.52169 1.60156 7.43145 1.55999C7.3412 1.51842 7.24359 1.4952 7.1443 1.49167C7.045 1.48814 6.946 1.50438 6.85303 1.53944C6.76006 1.5745 6.67499 1.62768 6.60275 1.69589C6.5305 1.76411 6.47254 1.846 6.43221 1.93681C6.39189 2.02762 6.37001 2.12553 6.36785 2.22487C6.36568 2.3242 6.38328 2.42298 6.41961 2.51545C6.45595 2.60793 6.51029 2.69227 6.57949 2.76356L12.4685 8.99981L6.57949 15.2346Z" fill="#1B1B1B"/>
</svg>
