<svg width="34" height="33" viewBox="0 0 34 33" fill="none" xmlns="http://www.w3.org/2000/svg">
<ellipse cx="17.14" cy="16.3576" rx="16.3627" ry="16.3576" fill="#C13222"/>
<path d="M19.223 10.9903C19.2813 10.9287 19.3268 10.8562 19.357 10.7769C19.3873 10.6977 19.4016 10.6133 19.3992 10.5285C19.3968 10.4437 19.3777 10.3602 19.3431 10.2828C19.3084 10.2054 19.2588 10.1356 19.1971 10.0773C19.1355 10.0191 19.0629 9.97352 18.9837 9.94329C18.9044 9.91306 18.82 9.89874 18.7351 9.90114C18.6503 9.90354 18.5668 9.92261 18.4894 9.95727C18.412 9.99193 18.3421 10.0415 18.2838 10.1031L12.7937 15.9144C12.6804 16.0343 12.6172 16.193 12.6172 16.358C12.6172 16.523 12.6804 16.6817 12.7937 16.8016L18.2838 22.6135C18.3417 22.6765 18.4116 22.7274 18.4893 22.7631C18.567 22.7989 18.6511 22.8189 18.7366 22.822C18.8221 22.825 18.9074 22.811 18.9874 22.7808C19.0675 22.7506 19.1407 22.7049 19.203 22.6461C19.2652 22.5874 19.3151 22.5169 19.3498 22.4387C19.3845 22.3605 19.4034 22.2762 19.4053 22.1907C19.4071 22.1052 19.392 22.0202 19.3607 21.9406C19.3294 21.8609 19.2826 21.7883 19.223 21.7269L14.1514 16.358L19.223 10.9903Z" fill="white"/>
</svg>
