<svg width="100" height="20" viewBox="0 0 100 20" fill="none" xmlns="http://www.w3.org/2000/svg">
<path d="M10 0L12.9389 5.95492L19.5106 6.90983L14.7553 11.5451L15.8779 18.0902L10 15L4.12215 18.0902L5.24472 11.5451L0.489435 6.90983L7.06107 5.95492L10 0Z" fill="#FFCC00"/>
<path d="M30 0L32.9389 5.95492L39.5106 6.90983L34.7553 11.5451L35.8779 18.0902L30 15L24.1221 18.0902L25.2447 11.5451L20.4894 6.90983L27.0611 5.95492L30 0Z" fill="#FFCC00"/>
<path d="M50 0L52.9389 5.95492L59.5106 6.90983L54.7553 11.5451L55.8779 18.0902L50 15L44.1221 18.0902L45.2447 11.5451L40.4894 6.90983L47.0611 5.95492L50 0Z" fill="#FFCC00"/>
<path d="M70 0L72.9389 5.95492L79.5106 6.90983L74.7553 11.5451L75.8779 18.0902L70 15L64.1221 18.0902L65.2447 11.5451L60.4894 6.90983L67.0611 5.95492L70 0Z" fill="#FFCC00"/>
<path d="M90 0L92.9389 5.95492L99.5106 6.90983L94.7553 11.5451L95.8779 18.0902L90 15L84.1221 18.0902L85.2447 11.5451L80.4894 6.90983L87.0611 5.95492L90 0Z" fill="#FFCC00"/>
</svg>
